# This file uses centimeters as units for non-parametric coordinates.

mtllib arena Bowl.mtl
g default
v 5.574113 0.006819 -1.778749
v 4.756512 0.006819 -3.383380
v 3.483068 0.006819 -4.656824
v 1.878436 0.006819 -5.474425
v 0.099688 0.006819 -5.756149
v -1.679060 0.006819 -5.474424
v -3.283691 0.006819 -4.656823
v -4.557134 0.006819 -3.383379
v -5.374735 0.006819 -1.778748
v -5.656460 0.006819 -0.000000
v -5.374735 0.006819 1.778748
v -4.557134 0.006819 3.383379
v -3.283691 0.006819 4.656821
v -1.679060 0.006819 5.474422
v 0.099688 0.006819 5.756147
v 1.878435 0.006819 5.474422
v 3.483066 0.006819 4.656821
v 4.756509 0.006819 3.383378
v 5.574110 0.006819 1.778747
v 5.855834 0.006819 -0.000000
v 6.646548 2.012577 -2.127204
v 5.668780 2.012577 -4.046182
v 4.145870 2.012577 -5.569092
v 2.226892 2.012577 -6.546860
v 0.099688 2.012577 -6.883775
v -2.027515 2.012577 -6.546859
v -3.946493 2.012577 -5.569090
v -5.469402 2.012577 -4.046181
v -6.447170 2.012577 -2.127203
v -6.784085 2.012577 0.000000
v -6.447170 2.012577 2.127203
v -5.469402 2.012577 4.046180
v -3.946492 2.012577 5.569089
v -2.027515 2.012577 6.546857
v 0.099688 2.012577 6.883773
v 2.226890 2.012577 6.546857
v 4.145868 2.012577 5.569089
v 5.668777 2.012577 4.046180
v 6.646544 2.012577 2.127203
v 6.983460 2.012577 0.000000
v 6.098526 2.603120 -1.275091
v 5.702330 2.603120 -2.494456
v 5.061272 2.603120 -3.604801
v 4.203370 2.603120 -4.557598
v 3.166116 2.603120 -5.311207
v 1.994845 2.603120 -5.832690
v 0.740747 2.603120 -6.099257
v -0.541369 2.603120 -6.099257
v -1.795467 2.603120 -5.832691
v -2.966738 2.603120 -5.311207
v -4.003991 2.603120 -4.557599
v -4.861894 2.603120 -3.604801
v -5.502951 2.603120 -2.494456
v -5.899146 2.603120 -1.275092
v -6.033164 2.603120 -0.000001
v -5.899146 2.603120 1.275091
v -5.502951 2.603120 2.494455
v -4.861893 2.603120 3.604799
v -4.003991 2.603120 4.557596
v -2.966738 2.603120 5.311205
v -1.795467 2.603120 5.832687
v -0.541370 2.603120 6.099254
v 0.740745 2.603120 6.099254
v 1.994843 2.603120 5.832687
v 3.166113 2.603120 5.311204
v 4.203365 2.603120 4.557595
v 5.061267 2.603120 3.604799
v 5.702325 2.603120 2.494455
v 6.098519 2.603120 1.275091
v 6.232537 2.603120 0.000000
v 6.765063 3.284547 -1.416768
v 6.324846 3.284547 -2.771618
v 5.612559 3.284547 -4.005334
v 4.659334 3.284547 -5.063998
v 3.506830 3.284547 -5.901341
v 2.205418 3.284547 -6.480767
v 0.811976 3.284547 -6.776953
v -0.612597 3.284547 -6.776953
v -2.006040 3.284547 -6.480768
v -3.307452 3.284547 -5.901341
v -4.459955 3.284547 -5.063998
v -5.413180 3.284547 -4.005334
v -6.125466 3.284547 -2.771618
v -6.565684 3.284547 -1.416769
v -6.714592 3.284547 -0.000001
v -6.565683 3.284547 1.416768
v -6.125466 3.284547 2.771617
v -5.413180 3.284547 4.005332
v -4.459955 3.284547 5.063996
v -3.307452 3.284547 5.901339
v -2.006040 3.284547 6.480764
v -0.612598 3.284547 6.776949
v 0.811974 3.284547 6.776949
v 2.205415 3.284547 6.480763
v 3.506827 3.284547 5.901338
v 4.659330 3.284547 5.063995
v 5.612554 3.284547 4.005332
v 6.324840 3.284547 2.771616
v 6.765057 3.284547 1.416768
v 6.913965 3.284547 0.000000
v 6.765063 1.921692 -1.416768
v 6.324846 1.921692 -2.771618
v 5.612559 1.921692 -4.005334
v 4.659334 1.921692 -5.063998
v 3.506830 1.921692 -5.901341
v 2.205418 1.921692 -6.480767
v 0.811976 1.921692 -6.776953
v -0.612597 1.921692 -6.776953
v -2.006040 1.921692 -6.480768
v -3.307452 1.921692 -5.901341
v -4.459955 1.921692 -5.063998
v -5.413180 1.921692 -4.005334
v -6.125466 1.921692 -2.771618
v -6.565684 1.921692 -1.416769
v -6.714592 1.921692 -0.000001
v -6.565683 1.921692 1.416768
v -6.125466 1.921692 2.771617
v -5.413180 1.921692 4.005332
v -4.459955 1.921692 5.063996
v -3.307452 1.921692 5.901339
v -2.006040 1.921692 6.480764
v -0.612598 1.921692 6.776949
v 0.811974 1.921692 6.776949
v 2.205415 1.921692 6.480763
v 3.506827 1.921692 5.901338
v 4.659330 1.921692 5.063995
v 5.612554 1.921692 4.005332
v 6.324840 1.921692 2.771616
v 6.765057 1.921692 1.416768
v 6.913965 1.921692 0.000000
vt 0.375000 0.312500
vt 0.387500 0.312500
vt 0.400000 0.312500
vt 0.412500 0.312500
vt 0.425000 0.312500
vt 0.437500 0.312500
vt 0.450000 0.312500
vt 0.462500 0.312500
vt 0.475000 0.312500
vt 0.487500 0.312500
vt 0.500000 0.312500
vt 0.512500 0.312500
vt 0.525000 0.312500
vt 0.537500 0.312500
vt 0.550000 0.312500
vt 0.562500 0.312500
vt 0.575000 0.312500
vt 0.587500 0.312500
vt 0.600000 0.312500
vt 0.612500 0.312500
vt 0.625000 0.312500
vt 0.375000 0.688440
vt 0.387500 0.688440
vt 0.400000 0.688440
vt 0.412500 0.688440
vt 0.425000 0.688440
vt 0.437500 0.688440
vt 0.450000 0.688440
vt 0.462500 0.688440
vt 0.475000 0.688440
vt 0.487500 0.688440
vt 0.500000 0.688440
vt 0.512500 0.688440
vt 0.525000 0.688440
vt 0.537500 0.688440
vt 0.550000 0.688440
vt 0.562500 0.688440
vt 0.575000 0.688440
vt 0.587500 0.688440
vt 0.600000 0.688440
vt 0.612500 0.688440
vt 0.625000 0.688440
vt 0.033333 1.000000
vt 0.000000 1.000000
vt 0.000000 0.750000
vt 0.033333 0.750000
vt 0.066667 1.000000
vt 0.066667 0.750000
vt 0.100000 1.000000
vt 0.100000 0.750000
vt 0.133333 1.000000
vt 0.133333 0.750000
vt 0.166667 1.000000
vt 0.166667 0.750000
vt 0.200000 1.000000
vt 0.200000 0.750000
vt 0.233333 1.000000
vt 0.233333 0.750000
vt 0.266667 1.000000
vt 0.266667 0.750000
vt 0.300000 1.000000
vt 0.300000 0.750000
vt 0.333333 1.000000
vt 0.333333 0.750000
vt 0.366667 1.000000
vt 0.366667 0.750000
vt 0.400000 1.000000
vt 0.400000 0.750000
vt 0.433333 1.000000
vt 0.433333 0.750000
vt 0.466667 1.000000
vt 0.466667 0.750000
vt 0.500000 1.000000
vt 0.500000 0.750000
vt 0.533333 1.000000
vt 0.533333 0.750000
vt 0.566667 1.000000
vt 0.566667 0.750000
vt 0.600000 1.000000
vt 0.600000 0.750000
vt 0.633333 1.000000
vt 0.633333 0.750000
vt 0.666667 1.000000
vt 0.666667 0.750000
vt 0.700000 1.000000
vt 0.700000 0.750000
vt 0.733334 1.000000
vt 0.733334 0.750000
vt 0.766667 1.000000
vt 0.766667 0.750000
vt 0.800000 1.000000
vt 0.800000 0.750000
vt 0.833334 1.000000
vt 0.833334 0.750000
vt 0.866667 1.000000
vt 0.866667 0.750000
vt 0.900000 1.000000
vt 0.900000 0.750000
vt 0.933334 1.000000
vt 0.933334 0.750000
vt 0.966667 1.000000
vt 0.966667 0.750000
vt 1.000000 1.000000
vt 1.000000 0.750000
vt 0.033333 0.250000
vt 0.000000 0.250000
vt 0.000000 0.000000
vt 0.033333 0.000000
vt 0.066667 0.250000
vt 0.066667 0.000000
vt 0.100000 0.250000
vt 0.100000 0.000000
vt 0.133333 0.250000
vt 0.133333 0.000000
vt 0.166667 0.250000
vt 0.166667 0.000000
vt 0.200000 0.250000
vt 0.200000 0.000000
vt 0.233333 0.250000
vt 0.233333 0.000000
vt 0.266667 0.250000
vt 0.266667 0.000000
vt 0.300000 0.250000
vt 0.300000 0.000000
vt 0.333333 0.250000
vt 0.333333 0.000000
vt 0.366667 0.250000
vt 0.366667 0.000000
vt 0.400000 0.250000
vt 0.400000 0.000000
vt 0.433333 0.250000
vt 0.433333 0.000000
vt 0.466667 0.250000
vt 0.466667 0.000000
vt 0.500000 0.250000
vt 0.500000 0.000000
vt 0.533333 0.250000
vt 0.533333 0.000000
vt 0.566667 0.250000
vt 0.566667 0.000000
vt 0.600000 0.250000
vt 0.600000 0.000000
vt 0.633333 0.250000
vt 0.633333 0.000000
vt 0.666667 0.250000
vt 0.666667 0.000000
vt 0.700000 0.250000
vt 0.700000 0.000000
vt 0.733334 0.250000
vt 0.733334 0.000000
vt 0.766667 0.250000
vt 0.766667 0.000000
vt 0.800000 0.250000
vt 0.800000 0.000000
vt 0.833334 0.250000
vt 0.833334 0.000000
vt 0.866667 0.250000
vt 0.866667 0.000000
vt 0.900000 0.250000
vt 0.900000 0.000000
vt 0.933334 0.250000
vt 0.933334 0.000000
vt 0.966667 0.250000
vt 0.966667 0.000000
vt 1.000000 0.250000
vt 1.000000 0.000000
vn -0.829026 0.490059 0.269366
vn -0.829026 0.490059 0.269366
vn -0.705212 0.490059 0.512366
vn -0.705212 0.490059 0.512366
vn -0.512366 0.490059 0.705212
vn -0.512366 0.490059 0.705212
vn -0.269367 0.490059 0.829026
vn -0.269367 0.490059 0.829026
vn -0.000000 0.490059 0.871689
vn 0.000000 0.490059 0.871690
vn 0.269367 0.490059 0.829026
vn 0.269367 0.490059 0.829026
vn 0.512366 0.490059 0.705211
vn 0.512367 0.490059 0.705211
vn 0.705212 0.490059 0.512366
vn 0.705212 0.490059 0.512366
vn 0.829026 0.490059 0.269367
vn 0.829026 0.490059 0.269367
vn 0.871690 0.490059 -0.000000
vn 0.871690 0.490058 0.000000
vn 0.829026 0.490059 -0.269367
vn 0.829026 0.490059 -0.269367
vn 0.705211 0.490059 -0.512366
vn 0.705211 0.490059 -0.512366
vn 0.512366 0.490059 -0.705212
vn 0.512366 0.490059 -0.705212
vn 0.269367 0.490059 -0.829026
vn 0.269367 0.490059 -0.829026
vn 0.000000 0.490059 -0.871689
vn 0.000000 0.490059 -0.871689
vn -0.269367 0.490059 -0.829026
vn -0.269367 0.490059 -0.829026
vn -0.512366 0.490059 -0.705212
vn -0.512366 0.490059 -0.705212
vn -0.705212 0.490059 -0.512366
vn -0.705212 0.490059 -0.512366
vn -0.829026 0.490059 -0.269367
vn -0.829026 0.490059 -0.269367
vn -0.871689 0.490059 -0.000001
vn -0.871689 0.490059 -0.000001
vn -0.645974 0.707107 0.287606
vn -0.691655 0.707107 0.147014
vn -0.691655 0.707107 0.147014
vn -0.645974 0.707107 0.287606
vn -0.572061 0.707107 0.415627
vn -0.572061 0.707107 0.415627
vn -0.473147 0.707107 0.525482
vn -0.473147 0.707107 0.525482
vn -0.353553 0.707107 0.612372
vn -0.353553 0.707107 0.612372
vn -0.218508 0.707107 0.672498
vn -0.218508 0.707107 0.672498
vn -0.073913 0.707107 0.703233
vn -0.073913 0.707107 0.703233
vn 0.073913 0.707107 0.703233
vn 0.073913 0.707107 0.703233
vn 0.218508 0.707107 0.672498
vn 0.218508 0.707107 0.672498
vn 0.353553 0.707107 0.612372
vn 0.353553 0.707107 0.612372
vn 0.473147 0.707107 0.525483
vn 0.473147 0.707107 0.525483
vn 0.572062 0.707107 0.415627
vn 0.572061 0.707107 0.415627
vn 0.645974 0.707107 0.287606
vn 0.645974 0.707107 0.287606
vn 0.691655 0.707107 0.147016
vn 0.691655 0.707107 0.147016
vn 0.707107 0.707107 -0.000000
vn 0.707107 0.707107 0.000000
vn 0.691655 0.707107 -0.147016
vn 0.691655 0.707107 -0.147016
vn 0.645974 0.707107 -0.287606
vn 0.645974 0.707107 -0.287606
vn 0.572061 0.707107 -0.415627
vn 0.572061 0.707107 -0.415627
vn 0.473147 0.707107 -0.525483
vn 0.473147 0.707107 -0.525483
vn 0.353553 0.707107 -0.612372
vn 0.353553 0.707107 -0.612372
vn 0.218508 0.707107 -0.672498
vn 0.218508 0.707107 -0.672498
vn 0.073913 0.707107 -0.703233
vn 0.073913 0.707107 -0.703233
vn -0.073913 0.707107 -0.703233
vn -0.073913 0.707107 -0.703233
vn -0.218508 0.707107 -0.672498
vn -0.218508 0.707107 -0.672498
vn -0.353553 0.707107 -0.612372
vn -0.353553 0.707107 -0.612372
vn -0.473147 0.707107 -0.525482
vn -0.473147 0.707107 -0.525482
vn -0.572061 0.707107 -0.415627
vn -0.572061 0.707107 -0.415627
vn -0.645974 0.707107 -0.287606
vn -0.645974 0.707107 -0.287606
vn -0.691655 0.707107 -0.147016
vn -0.691655 0.707107 -0.147016
vn -0.707107 0.707107 -0.000002
vn -0.707107 0.707107 -0.000002
vn -0.645974 -0.707107 0.287606
vn -0.691655 -0.707107 0.147014
vn -0.691655 -0.707107 0.147014
vn -0.645974 -0.707107 0.287606
vn -0.572061 -0.707107 0.415627
vn -0.572061 -0.707107 0.415627
vn -0.473146 -0.707107 0.525483
vn -0.473147 -0.707107 0.525483
vn -0.353553 -0.707107 0.612372
vn -0.353553 -0.707107 0.612372
vn -0.218508 -0.707107 0.672498
vn -0.218508 -0.707107 0.672498
vn -0.073913 -0.707107 0.703233
vn -0.073913 -0.707107 0.703233
vn 0.073913 -0.707107 0.703233
vn 0.073913 -0.707107 0.703233
vn 0.218508 -0.707107 0.672498
vn 0.218508 -0.707107 0.672498
vn 0.353553 -0.707107 0.612372
vn 0.353553 -0.707107 0.612372
vn 0.473147 -0.707107 0.525483
vn 0.473147 -0.707107 0.525483
vn 0.572061 -0.707107 0.415627
vn 0.572061 -0.707107 0.415627
vn 0.645974 -0.707107 0.287606
vn 0.645974 -0.707107 0.287606
vn 0.691655 -0.707107 0.147016
vn 0.691655 -0.707107 0.147016
vn 0.707106 -0.707107 -0.000000
vn 0.707106 -0.707107 -0.000000
vn 0.691655 -0.707107 -0.147016
vn 0.691655 -0.707107 -0.147016
vn 0.645974 -0.707107 -0.287606
vn 0.645974 -0.707107 -0.287606
vn 0.572061 -0.707107 -0.415627
vn 0.572061 -0.707107 -0.415627
vn 0.473147 -0.707107 -0.525483
vn 0.473147 -0.707107 -0.525483
vn 0.353553 -0.707107 -0.612372
vn 0.353553 -0.707107 -0.612372
vn 0.218508 -0.707107 -0.672499
vn 0.218508 -0.707107 -0.672499
vn 0.073913 -0.707107 -0.703233
vn 0.073913 -0.707107 -0.703233
vn -0.073913 -0.707107 -0.703233
vn -0.073913 -0.707107 -0.703233
vn -0.218508 -0.707107 -0.672498
vn -0.218508 -0.707107 -0.672498
vn -0.353553 -0.707107 -0.612372
vn -0.353553 -0.707107 -0.612372
vn -0.473147 -0.707107 -0.525483
vn -0.473147 -0.707107 -0.525482
vn -0.572061 -0.707107 -0.415627
vn -0.572061 -0.707107 -0.415627
vn -0.645974 -0.707107 -0.287606
vn -0.645974 -0.707107 -0.287606
vn -0.691655 -0.707107 -0.147016
vn -0.691655 -0.707107 -0.147016
vn -0.707107 -0.707107 -0.000002
vn -0.707107 -0.707107 -0.000002
s 1
g pCylinder6
usemtl initialShadingGroup
f 1/1/1 21/22/2 22/23/3 2/2/4
f 2/2/4 22/23/3 23/24/5 3/3/6
f 3/3/6 23/24/5 24/25/7 4/4/8
f 4/4/8 24/25/7 25/26/9 5/5/10
f 5/5/10 25/26/9 26/27/11 6/6/12
f 6/6/12 26/27/11 27/28/13 7/7/14
f 7/7/14 27/28/13 28/29/15 8/8/16
f 8/8/16 28/29/15 29/30/17 9/9/18
f 9/9/18 29/30/17 30/31/19 10/10/20
f 10/10/20 30/31/19 31/32/21 11/11/22
f 11/11/22 31/32/21 32/33/23 12/12/24
f 12/12/24 32/33/23 33/34/25 13/13/26
f 13/13/26 33/34/25 34/35/27 14/14/28
f 14/14/28 34/35/27 35/36/29 15/15/30
f 15/15/30 35/36/29 36/37/31 16/16/32
f 16/16/32 36/37/31 37/38/33 17/17/34
f 17/17/34 37/38/33 38/39/35 18/18/36
f 18/18/36 38/39/35 39/40/37 19/19/38
f 19/19/38 39/40/37 40/41/39 20/20/40
f 20/20/40 40/41/39 21/42/2 1/21/1
s 2
f 42/43/41 41/44/42 71/45/43 72/46/44
f 43/47/45 42/43/41 72/46/44 73/48/46
f 44/49/47 43/47/45 73/48/46 74/50/48
f 45/51/49 44/49/47 74/50/48 75/52/50
f 46/53/51 45/51/49 75/52/50 76/54/52
f 47/55/53 46/53/51 76/54/52 77/56/54
f 48/57/55 47/55/53 77/56/54 78/58/56
f 49/59/57 48/57/55 78/58/56 79/60/58
f 50/61/59 49/59/57 79/60/58 80/62/60
f 51/63/61 50/61/59 80/62/60 81/64/62
f 52/65/63 51/63/61 81/64/62 82/66/64
f 53/67/65 52/65/63 82/66/64 83/68/66
f 54/69/67 53/67/65 83/68/66 84/70/68
f 55/71/69 54/69/67 84/70/68 85/72/70
f 56/73/71 55/71/69 85/72/70 86/74/72
f 57/75/73 56/73/71 86/74/72 87/76/74
f 58/77/75 57/75/73 87/76/74 88/78/76
f 59/79/77 58/77/75 88/78/76 89/80/78
f 60/81/79 59/79/77 89/80/78 90/82/80
f 61/83/81 60/81/79 90/82/80 91/84/82
f 62/85/83 61/83/81 91/84/82 92/86/84
f 63/87/85 62/85/83 92/86/84 93/88/86
f 64/89/87 63/87/85 93/88/86 94/90/88
f 65/91/89 64/89/87 94/90/88 95/92/90
f 66/93/91 65/91/89 95/92/90 96/94/92
f 67/95/93 66/93/91 96/94/92 97/96/94
f 68/97/95 67/95/93 97/96/94 98/98/96
f 69/99/97 68/97/95 98/98/96 99/100/98
f 70/101/99 69/99/97 99/100/98 100/102/100
f 41/103/42 70/101/99 100/102/100 71/104/43
s 3
f 102/105/101 101/106/102 41/107/103 42/108/104
f 103/109/105 102/105/101 42/108/104 43/110/106
f 104/111/107 103/109/105 43/110/106 44/112/108
f 105/113/109 104/111/107 44/112/108 45/114/110
f 106/115/111 105/113/109 45/114/110 46/116/112
f 107/117/113 106/115/111 46/116/112 47/118/114
f 108/119/115 107/117/113 47/118/114 48/120/116
f 109/121/117 108/119/115 48/120/116 49/122/118
f 110/123/119 109/121/117 49/122/118 50/124/120
f 111/125/121 110/123/119 50/124/120 51/126/122
f 112/127/123 111/125/121 51/126/122 52/128/124
f 113/129/125 112/127/123 52/128/124 53/130/126
f 114/131/127 113/129/125 53/130/126 54/132/128
f 115/133/129 114/131/127 54/132/128 55/134/130
f 116/135/131 115/133/129 55/134/130 56/136/132
f 117/137/133 116/135/131 56/136/132 57/138/134
f 118/139/135 117/137/133 57/138/134 58/140/136
f 119/141/137 118/139/135 58/140/136 59/142/138
f 120/143/139 119/141/137 59/142/138 60/144/140
f 121/145/141 120/143/139 60/144/140 61/146/142
f 122/147/143 121/145/141 61/146/142 62/148/144
f 123/149/145 122/147/143 62/148/144 63/150/146
f 124/151/147 123/149/145 63/150/146 64/152/148
f 125/153/149 124/151/147 64/152/148 65/154/150
f 126/155/151 125/153/149 65/154/150 66/156/152
f 127/157/153 126/155/151 66/156/152 67/158/154
f 128/159/155 127/157/153 67/158/154 68/160/156
f 129/161/157 128/159/155 68/160/156 69/162/158
f 130/163/159 129/161/157 69/162/158 70/164/160
f 101/165/102 130/163/159 70/164/160 41/166/103
