# This file uses centimeters as units for non-parametric coordinates.

mtllib Iron Girder.mtl
g default
v -2.945274 -0.241521 -0.278505
v 2.945274 -0.241521 -0.278505
v -2.945274 -0.241521 0.278505
v 2.945274 -0.241521 0.278505
v -2.945274 0.241521 0.278505
v 2.945274 0.241521 0.278505
v -2.945274 0.241521 -0.278505
v 2.945274 0.241521 -0.278505
v 2.945274 0.096781 0.094673
v -2.945274 0.096781 0.094673
v -2.945274 0.096781 -0.094673
v 2.945274 0.096781 -0.094673
v 2.945274 -0.096781 0.094673
v -2.945274 -0.096781 0.094673
v -2.945274 -0.096781 -0.094673
v 2.945274 -0.096781 -0.094673
v -2.945274 0.128936 -0.278505
v 2.945274 0.128936 -0.278505
v 2.945274 0.128936 0.278505
v -2.945274 0.128936 0.278505
v -2.945274 -0.117246 0.278505
v 2.945274 -0.117246 0.278505
v 2.945274 -0.117246 -0.278505
v -2.945274 -0.117246 -0.278505
vt 0.237783 0.018167
vt 0.992135 0.830540
vt 0.003973 0.241349
vt 0.746092 0.217840
vt 0.003966 0.683916
vt 0.994995 0.421479
vt 0.003241 0.462413
vt 0.994463 0.805911
vt 0.003483 0.657738
vt 0.993133 0.655161
vt 0.917743 0.014686
vt 0.920326 0.215600
vt 0.063535 0.018230
vt 0.063609 0.219161
vt 0.994463 0.348613
vt 0.867266 0.149963
vt 0.115797 0.152828
vt 0.004867 0.363796
vt 0.115772 0.084525
vt 0.003332 0.535283
vt 0.992981 0.532707
vt 0.866388 0.081666
vt 0.994119 0.301476
vt 0.797448 0.150860
vt 0.185620 0.152802
vt 0.004523 0.316659
vt 0.185595 0.084500
vt 0.003390 0.582424
vt 0.993039 0.579847
vt 0.796570 0.082563
vt 0.104148 0.018216
vt 0.003276 0.489832
vt 0.992925 0.487256
vt 0.877134 0.015208
vt 0.994795 0.394062
vt 0.879717 0.216122
vt 0.104221 0.219146
vt 0.005199 0.409245
vt 0.193027 0.219114
vt 0.004194 0.271613
vt 0.993790 0.256430
vt 0.790918 0.217264
vt 0.993095 0.624895
vt 0.788336 0.016350
vt 0.192953 0.018183
vt 0.003446 0.627471
vt 0.004857 0.819565
vt 0.992891 0.459837
vt 0.005399 0.436663
vt 0.993572 0.670261
vt 0.743510 0.016926
vt 0.993385 0.966184
vt 0.002572 0.849696
vt 0.237856 0.219097
vt 0.003822 0.985340
vt 0.993569 0.226166
vn 0.000000 -1.000000 0.000000
vn 0.000000 -1.000000 0.000000
vn 0.000000 -1.000000 0.000000
vn 0.000000 -1.000000 0.000000
vn 0.000000 0.993860 0.110643
vn 0.000000 0.993860 0.110643
vn 0.000000 0.993860 0.110643
vn 0.000000 0.993860 0.110643
vn 0.000000 1.000000 0.000000
vn 0.000000 1.000000 0.000000
vn 0.000000 1.000000 0.000000
vn 0.000000 1.000000 0.000000
vn 0.000000 0.993860 -0.110643
vn 0.000000 0.993860 -0.110643
vn 0.000000 0.993860 -0.110643
vn 0.000000 0.993860 -0.110643
vn 1.000000 0.000016 0.000000
vn 1.000000 0.000016 0.000000
vn 1.000000 0.000016 0.000000
vn 1.000000 0.000016 0.000000
vn -1.000000 0.000016 0.000000
vn -1.000000 0.000016 0.000000
vn -1.000000 0.000016 0.000000
vn -1.000000 0.000016 0.000000
vn 0.000000 -0.985044 0.172304
vn 0.000000 -0.985044 0.172304
vn 0.000000 -0.985044 0.172304
vn 0.000000 -0.985044 0.172304
vn -1.000000 -0.000010 0.000000
vn -1.000000 -0.000010 0.000000
vn -1.000000 -0.000010 0.000000
vn -1.000000 -0.000010 0.000000
vn 0.000000 -0.985044 -0.172304
vn 0.000000 -0.985044 -0.172304
vn 0.000000 -0.985044 -0.172304
vn 0.000000 -0.985044 -0.172304
vn 1.000000 -0.000010 0.000000
vn 1.000000 -0.000010 0.000000
vn 1.000000 -0.000010 0.000000
vn 1.000000 -0.000010 0.000000
vn 0.000000 0.000000 1.000000
vn 0.000000 0.000000 1.000000
vn 0.000000 0.000000 1.000000
vn 0.000000 0.000000 1.000000
vn -1.000000 0.000000 0.000000
vn -1.000000 0.000000 0.000000
vn -1.000000 0.000000 0.000000
vn -1.000000 0.000000 0.000000
vn 0.000000 0.000000 -1.000000
vn 0.000000 0.000000 -1.000000
vn 0.000000 0.000000 -1.000000
vn 0.000000 0.000000 -1.000000
vn 1.000000 0.000000 0.000000
vn 1.000000 0.000000 0.000000
vn 1.000000 0.000000 0.000000
vn 1.000000 0.000000 0.000000
vn 0.000000 0.000000 -1.000000
vn 0.000000 0.000000 -1.000000
vn 0.000000 0.000000 -1.000000
vn 0.000000 0.000000 -1.000000
vn 1.000000 0.000000 0.000000
vn 1.000000 0.000000 0.000000
vn 1.000000 0.000000 0.000000
vn 1.000000 0.000000 0.000000
vn 0.000000 0.000000 1.000000
vn 0.000000 0.000000 1.000000
vn 0.000000 0.000000 1.000000
vn 0.000000 0.000000 1.000000
vn -1.000000 0.000000 0.000000
vn -1.000000 0.000000 0.000000
vn -1.000000 0.000000 0.000000
vn -1.000000 0.000000 0.000000
vn 0.000000 0.000000 1.000000
vn 0.000000 0.000000 1.000000
vn 0.000000 0.000000 1.000000
vn 0.000000 0.000000 1.000000
vn 1.000000 0.000000 0.000000
vn 1.000000 0.000000 0.000000
vn 1.000000 0.000000 0.000000
vn 1.000000 0.000000 0.000000
vn 0.000000 0.000000 -1.000000
vn 0.000000 0.000000 -1.000000
vn 0.000000 0.000000 -1.000000
vn 0.000000 0.000000 -1.000000
vn -1.000000 0.000000 0.000000
vn -1.000000 0.000000 0.000000
vn -1.000000 0.000000 0.000000
vn -1.000000 0.000000 0.000000
s off
g pCube2
usemtl initialShadingGroup
f 1/53/1 2/2/2 4/52/3 3/55/4
f 21/40/5 22/41/6 13/23/7 14/26/8
f 5/5/9 6/50/10 8/8/11 7/47/12
f 15/28/13 16/29/14 23/43/15 24/46/16
f 22/42/17 23/44/18 16/30/19 13/24/20
f 15/27/21 24/45/22 21/39/23 14/25/24
f 10/18/25 9/15/26 19/35/27 20/38/28
f 20/37/29 17/31/30 11/19/31 10/17/32
f 17/32/33 18/33/34 12/21/35 11/20/36
f 9/16/37 12/22/38 18/34/39 19/36/40
f 14/26/41 13/23/42 9/15/43 10/18/44
f 11/19/45 15/27/46 14/25/47 10/17/48
f 11/20/49 12/21/50 16/29/51 15/28/52
f 13/24/53 16/30/54 12/22/55 9/16/56
f 7/7/57 8/48/58 18/33/59 17/32/60
f 19/36/61 18/34/62 8/11/63 6/12/64
f 20/38/65 19/35/66 6/6/67 5/49/68
f 7/13/69 17/31/70 20/37/71 5/14/72
f 3/3/73 4/56/74 22/41/75 21/40/76
f 2/51/77 23/44/78 22/42/79 4/4/80
f 24/46/81 23/43/82 2/10/83 1/9/84
f 21/39/85 24/45/86 1/1/87 3/54/88
