# This file uses centimeters as units for non-parametric coordinates.

mtllib Screw.mtl
g default
v 0.129050 -0.052647 -0.129049
v 0.000000 -0.052647 -0.182503
v -0.129050 -0.052647 -0.129049
v -0.182503 -0.052647 -0.000000
v -0.129050 -0.052647 0.129049
v 0.000000 -0.052647 0.182503
v 0.129050 -0.052647 0.129049
v 0.182503 -0.052647 -0.000000
v 0.129050 0.252029 -0.129049
v 0.000000 0.252029 -0.182503
v -0.129050 0.252029 -0.129049
v -0.182503 0.252029 -0.000000
v -0.129050 0.252029 0.129049
v 0.000000 0.252029 0.182503
v 0.129050 0.252029 0.129049
v 0.182503 0.252029 -0.000000
v 0.000000 0.252029 -0.000000
vt 0.325549 0.011270
vt 0.369162 0.011270
vt 0.412775 0.011270
vt 0.456387 0.011270
vt 0.500000 0.011270
vt 0.543613 0.011270
vt 0.587225 0.011270
vt 0.630838 0.011270
vt 0.674451 0.011270
vt 0.325549 0.535933
vt 0.369162 0.535933
vt 0.412775 0.535933
vt 0.456387 0.535933
vt 0.500000 0.535933
vt 0.543613 0.535933
vt 0.587225 0.535933
vt 0.630838 0.535933
vt 0.674451 0.535933
vt 0.654194 0.598491
vt 0.500000 0.534621
vt 0.345806 0.598491
vt 0.281937 0.752685
vt 0.345806 0.906879
vt 0.500000 0.970748
vt 0.654194 0.906879
vt 0.718063 0.752685
vt 0.500000 0.743962
vn 0.382679 0.000000 -0.923881
vn 0.382679 0.000000 -0.923881
vn 0.382679 0.000000 -0.923881
vn 0.382679 0.000000 -0.923881
vn -0.382679 0.000000 -0.923881
vn -0.382679 0.000000 -0.923881
vn -0.382679 0.000000 -0.923881
vn -0.382679 0.000000 -0.923881
vn -0.923883 0.000000 -0.382674
vn -0.923883 0.000000 -0.382674
vn -0.923883 0.000000 -0.382674
vn -0.923883 0.000000 -0.382674
vn -0.923883 0.000000 0.382674
vn -0.923883 0.000000 0.382674
vn -0.923883 0.000000 0.382674
vn -0.923883 0.000000 0.382674
vn -0.382679 0.000000 0.923881
vn -0.382679 0.000000 0.923881
vn -0.382679 0.000000 0.923881
vn -0.382679 0.000000 0.923881
vn 0.382679 0.000000 0.923881
vn 0.382679 0.000000 0.923881
vn 0.382679 0.000000 0.923881
vn 0.382679 0.000000 0.923881
vn 0.923883 0.000000 0.382675
vn 0.923883 0.000000 0.382675
vn 0.923883 0.000000 0.382675
vn 0.923883 0.000000 0.382675
vn 0.923883 0.000000 -0.382675
vn 0.923883 0.000000 -0.382675
vn 0.923883 0.000000 -0.382675
vn 0.923883 0.000000 -0.382675
vn 0.000000 1.000000 0.000000
vn 0.000000 1.000000 0.000000
vn 0.000000 1.000000 0.000000
vn 0.000000 1.000000 0.000000
vn 0.000000 1.000000 0.000000
vn 0.000000 1.000000 0.000000
vn 0.000000 1.000000 0.000000
vn 0.000000 1.000000 0.000000
vn 0.000000 1.000000 0.000000
s off
g pCylinder5
usemtl initialShadingGroup
f 1/1/1 2/2/2 10/11/3 9/10/4
f 2/2/5 3/3/6 11/12/7 10/11/8
f 3/3/9 4/4/10 12/13/11 11/12/12
f 4/4/13 5/5/14 13/14/15 12/13/16
f 5/5/17 6/6/18 14/15/19 13/14/20
f 6/6/21 7/7/22 15/16/23 14/15/24
f 7/7/25 8/8/26 16/17/27 15/16/28
f 8/8/29 1/9/30 9/18/31 16/17/32
s 1
f 9/25/33 10/24/34 17/27/35
f 10/24/34 11/23/36 17/27/35
f 11/23/36 12/22/37 17/27/35
f 12/22/37 13/21/38 17/27/35
f 13/21/38 14/20/39 17/27/35
f 14/20/39 15/19/40 17/27/35
f 15/19/40 16/26/41 17/27/35
f 16/26/41 9/25/33 17/27/35
